<svg width="87" height="68" viewBox="0 0 87 68" fill="none" xmlns="http://www.w3.org/2000/svg">
<path d="M49.5337 0.01379C49.5409 0.0277519 49.5531 0.0501198 49.5692 0.0812078C49.6017 0.14381 49.6519 0.241036 49.7205 0.369265C49.8576 0.625761 50.0667 1.00819 50.3454 1.49698C50.9033 2.47522 51.7405 3.87647 52.8438 5.54358C55.055 8.88462 58.3132 13.2603 62.5132 17.4306C68.3398 23.2158 73.1533 26.8407 76.4695 29.0034C78.1277 30.0848 79.4133 30.8013 80.2657 31.2405C80.6919 31.4601 81.0106 31.6098 81.2132 31.7017C81.282 31.7329 81.338 31.7567 81.3798 31.7752V36.2233C81.3379 36.2418 81.2823 36.267 81.2132 36.2983C81.0106 36.3902 80.6919 36.5399 80.2657 36.7595C79.4133 37.1987 78.1277 37.9152 76.4695 38.9966C73.1533 41.1593 68.3398 44.7842 62.5132 50.5694C58.3132 54.7397 55.055 59.1154 52.8438 62.4564C51.7405 64.1235 50.9033 65.5248 50.3454 66.503C50.0667 66.9918 49.8576 67.3742 49.7205 67.6307C49.6519 67.759 49.6017 67.8562 49.5692 67.9188C49.5531 67.9499 49.5409 67.9722 49.5337 67.9862C49.5304 67.9928 49.526 68 49.526 68C49.51 67.9917 49.3317 67.9051 47.4057 66.9489C45.339 65.9228 45.2854 65.8963 45.2854 65.8963L45.287 65.8947L45.2885 65.8917C45.2885 65.8917 45.2901 65.8869 45.2916 65.884C45.2949 65.8774 45.2998 65.8675 45.3055 65.8564C45.3168 65.8344 45.333 65.8038 45.3533 65.7645C45.3945 65.685 45.4543 65.5703 45.5323 65.4243C45.6884 65.1323 45.9177 64.7116 46.219 64.1832C46.8216 63.1267 47.7129 61.6349 48.881 59.87C51.2128 56.3467 54.6706 51.7006 59.1615 47.2415C64.2101 42.2286 68.5717 38.7341 71.9635 36.3535H0V31.6465H71.9635C68.5717 29.2659 64.2101 25.7714 59.1615 20.7585C54.6706 16.2994 51.2128 11.6532 48.881 8.12997C47.7129 6.36507 46.8216 4.87326 46.219 3.81676C45.9177 3.28836 45.6884 2.86768 45.5323 2.57566C45.4543 2.42974 45.3945 2.31498 45.3533 2.23551C45.333 2.19625 45.3168 2.16563 45.3055 2.14358C45.2998 2.13248 45.2949 2.12259 45.2916 2.116C45.2901 2.11308 45.2885 2.10834 45.2885 2.10834L45.287 2.10527L45.2854 2.10374L49.5245 0C49.5245 0 49.5304 0.00719542 49.5337 0.01379Z" fill="white"/>
</svg>
