<svg width="72" height="60" viewBox="0 0 72 60" fill="none" xmlns="http://www.w3.org/2000/svg">
<path d="M27.9964 0.012123C27.9902 0.0243971 27.9794 0.0440612 27.9652 0.0713912C27.9367 0.126426 27.8926 0.211899 27.8323 0.324628C27.7118 0.550118 27.5279 0.886318 27.2829 1.31602C26.7924 2.17601 26.0565 3.40787 25.0865 4.87346C23.1426 7.81063 20.2783 11.6573 16.586 15.3235C11.4637 20.4094 7.23205 23.5962 4.31673 25.4974C2.85903 26.448 1.72882 27.0779 0.979469 27.464C0.604744 27.6571 0.324577 27.7888 0.146507 27.8695C0.0860138 27.8969 0.0367661 27.9179 -7.62939e-06 27.9341V31.8445C0.0368271 31.8608 0.0857315 31.883 0.146507 31.9105C0.324577 31.9912 0.604744 32.1229 0.979469 32.3159C1.72882 32.7021 2.85903 33.3319 4.31673 34.2826C7.23205 36.1838 11.4637 39.3706 16.586 44.4565C20.2783 48.1226 23.1426 51.9694 25.0865 54.9065C26.0565 56.3721 26.7924 57.604 27.2829 58.464C27.5279 58.8937 27.7118 59.2299 27.8323 59.4554C27.8926 59.5681 27.9367 59.6536 27.9652 59.7086C27.9794 59.7359 27.9902 59.7556 27.9964 59.7679C27.9994 59.7737 28.0032 59.78 28.0032 59.78C28.0173 59.7727 28.174 59.6965 29.8672 58.8559C31.6842 57.9539 31.7312 57.9306 31.7312 57.9306L31.7299 57.9292L31.7285 57.9265C31.7285 57.9265 31.7271 57.9223 31.7258 57.9198C31.7228 57.914 31.7186 57.9053 31.7136 57.8955C31.7037 57.8761 31.6894 57.8492 31.6715 57.8147C31.6353 57.7449 31.5827 57.644 31.5141 57.5157C31.3769 57.259 31.1754 56.8891 30.9105 56.4246C30.3808 55.4958 29.5972 54.1843 28.5703 52.6328C26.5203 49.5354 23.4806 45.4509 19.5325 41.5308C15.0942 37.1239 11.2598 34.0518 8.27805 31.959H71.5424V27.821H8.27805C11.2598 25.7282 15.0942 22.6561 19.5325 18.2492C23.4806 14.3291 26.5203 10.2446 28.5703 7.1472C29.5972 5.59564 30.3808 4.28417 30.9105 3.35538C31.1754 2.89085 31.3769 2.52103 31.5141 2.26431C31.5827 2.13603 31.6353 2.03514 31.6715 1.96528C31.6894 1.93076 31.7037 1.90384 31.7136 1.88446C31.7186 1.8747 31.7228 1.86601 31.7258 1.86021C31.7271 1.85765 31.7285 1.85348 31.7285 1.85348L31.7299 1.85078L31.7312 1.84944L28.0046 0C28.0046 0 27.9994 0.00632562 27.9964 0.012123Z" fill="white" fill-opacity="0.5"/>
</svg>
