<svg width="22" height="14" viewBox="0 0 22 14" fill="none" xmlns="http://www.w3.org/2000/svg">
<path d="M21.9955 1.34432C21.991 1.34658 21.9838 1.35045 21.9737 1.35555C21.9535 1.36582 21.922 1.38171 21.8805 1.4034C21.7975 1.44679 21.6738 1.51296 21.5157 1.60117C21.1992 1.77771 20.7458 2.04261 20.2065 2.39174C19.1256 3.09145 17.7099 4.12245 16.3607 5.4515C14.489 7.29522 13.3162 8.81841 12.6165 9.86777C12.2667 10.3925 12.0349 10.7993 11.8928 11.069C11.8217 11.2039 11.7733 11.3047 11.7436 11.3688C11.7335 11.3906 11.7258 11.4083 11.7198 11.4216H10.2807C10.2747 11.4083 10.2666 11.3907 10.2564 11.3688C10.2267 11.3047 10.1783 11.2039 10.1072 11.069C9.96512 10.7993 9.73331 10.3925 9.38346 9.86777C8.68377 8.81841 7.511 7.29522 5.6393 5.4515C4.29009 4.12245 2.87444 3.09145 1.79351 2.39174C1.25415 2.04261 0.800806 1.77771 0.484316 1.60117C0.326178 1.51296 0.202454 1.44679 0.119469 1.4034C0.0779839 1.38171 0.046526 1.36582 0.0262718 1.35555C0.0162144 1.35045 0.0089798 1.34658 0.00446129 1.34432C0.00232887 1.34325 0 1.34188 0 1.34188C0.00268173 1.33682 0.030714 1.28039 0.340065 0.670939C0.672026 0.0169382 0.680622 0 0.680622 0L0.681118 0.000488879L0.682108 0.000976551C0.682108 0.000976551 0.683643 0.0014851 0.684587 0.0019531C0.68672 0.00301131 0.689919 0.00455378 0.69351 0.00634818C0.700644 0.00991359 0.71055 0.0150435 0.723253 0.0214853C0.748964 0.034524 0.786093 0.0534487 0.833303 0.0781301C0.92778 0.127522 1.06388 0.200069 1.23483 0.295428C1.57664 0.486088 2.05929 0.768144 2.63028 1.13776C3.77017 1.87564 5.27335 2.9698 6.716 4.39089C8.33782 5.98846 9.46839 7.36863 10.2386 8.44191L11 9.40277C11.7702 8.3295 13.6622 5.98846 15.284 4.39089C16.7267 2.9698 18.2298 1.87564 19.3697 1.13776C19.9407 0.768144 20.4234 0.486088 20.7652 0.295428C20.9361 0.200069 21.0722 0.127522 21.1667 0.0781301C21.2139 0.0534487 21.251 0.034524 21.2767 0.0214853C21.2894 0.0150435 21.2994 0.00991359 21.3065 0.00634818C21.3101 0.00455378 21.3133 0.00301131 21.3154 0.0019531C21.3164 0.0014851 21.3179 0.000976551 21.3179 0.000976551L21.3189 0.000488879L21.3194 0L22 1.34139C22 1.34139 21.9977 1.34325 21.9955 1.34432Z" fill="white"/>
</svg>
