<svg width="37" height="36" viewBox="0 0 37 36" fill="none" xmlns="http://www.w3.org/2000/svg">
<path d="M17.9791 11.8105C21.3541 11.8105 24.0436 14.5527 24.0436 17.875C24.0436 21.25 21.3014 23.9395 17.9791 23.9395C14.6041 23.9395 11.9147 21.1973 11.9147 17.875C11.9147 14.5 14.6569 11.8105 17.9791 11.8105ZM17.9791 13.9199C15.7643 13.9727 14.024 15.7129 14.024 17.875C14.0768 20.0898 15.817 21.8301 17.9791 21.8301C20.194 21.7773 21.9342 20.0371 21.9342 17.875C21.8815 15.6602 20.1412 13.9199 17.9791 13.9199ZM22.8834 11.5469C22.8834 12.3379 23.5162 12.9707 24.3073 12.9707C25.0983 12.9707 25.7311 12.3379 25.7311 11.5469C25.7311 10.7559 25.0983 10.1758 24.3073 10.1758C23.5162 10.1758 22.8834 10.7559 22.8834 11.5469ZM29.7389 13.0234C29.8444 14.9746 29.8444 20.7754 29.7389 22.7266C29.6334 24.625 29.2115 26.3125 27.8405 27.6836C26.4166 29.1074 24.7819 29.5293 22.8834 29.582C20.9323 29.7402 15.0787 29.7402 13.1276 29.582C11.2291 29.5293 9.54163 29.0547 8.17053 27.6836C6.79944 26.3125 6.32483 24.625 6.27209 22.7266C6.16663 20.7754 6.16663 14.9219 6.27209 12.9707C6.37756 11.125 6.79944 9.4375 8.17053 8.06641C9.54163 6.64258 11.2291 6.2207 13.1276 6.11523C15.0787 6.00977 20.9323 6.00977 22.8834 6.11523C24.7819 6.2207 26.4166 6.64258 27.8405 8.06641C29.2115 9.4375 29.6334 11.125 29.7389 13.0234ZM27.2076 24.8359C27.8405 23.3066 27.6823 19.6152 27.6823 17.875C27.6823 16.1348 27.8405 12.4434 27.2076 10.9141C26.7858 9.85938 25.9948 9.06836 24.9401 8.64648C23.4108 8.06641 19.7194 8.17188 17.9791 8.17188C16.2916 8.17188 12.6002 8.06641 11.0182 8.64648C10.0162 9.06836 9.17249 9.85938 8.80334 10.9141C8.17053 12.4434 8.32874 16.1348 8.32874 17.875C8.32874 19.6152 8.17053 23.3066 8.80334 24.8359C9.22522 25.8906 10.0162 26.6816 11.0182 27.1035C12.6002 27.6836 16.2916 27.5781 17.9791 27.5781C19.7194 27.5781 23.4108 27.6836 24.9401 27.1035C25.9948 26.6816 26.7858 25.8906 27.2076 24.8359Z" fill="white"/>
</svg>
