<svg width="26" height="26" viewBox="0 0 26 26" fill="none" xmlns="http://www.w3.org/2000/svg">
<path d="M13.0662 8.84319C15.572 8.84319 17.5689 10.8792 17.5689 13.3459C17.5689 15.8518 15.5329 17.8487 13.0662 17.8487C10.5603 17.8487 8.56343 15.8126 8.56343 13.3459C8.56343 10.8401 10.5994 8.84319 13.0662 8.84319ZM13.0662 10.4094C11.4217 10.4485 10.1296 11.7406 10.1296 13.3459C10.1688 14.9904 11.4608 16.2825 13.0662 16.2825C14.7106 16.2433 16.0027 14.9512 16.0027 13.3459C15.9636 11.7014 14.6715 10.4094 13.0662 10.4094ZM16.7075 8.64742C16.7075 9.23473 17.1774 9.70458 17.7647 9.70458C18.352 9.70458 18.8218 9.23473 18.8218 8.64742C18.8218 8.0601 18.352 7.62941 17.7647 7.62941C17.1774 7.62941 16.7075 8.0601 16.7075 8.64742ZM21.7975 9.74373C21.8759 11.1924 21.8759 15.4994 21.7975 16.9481C21.7192 18.3577 21.406 19.6106 20.388 20.6286C19.3308 21.6858 18.1171 21.999 16.7075 22.0382C15.2588 22.1556 10.9127 22.1556 9.46398 22.0382C8.05443 21.999 6.80149 21.6466 5.78348 20.6286C4.76547 19.6106 4.41309 18.3577 4.37393 16.9481C4.29562 15.4994 4.29562 11.1533 4.37393 9.70458C4.45224 8.33418 4.76547 7.08125 5.78348 6.06324C6.80149 5.00608 8.05443 4.69284 9.46398 4.61453C10.9127 4.53623 15.2588 4.53623 16.7075 4.61453C18.1171 4.69284 19.3308 5.00608 20.388 6.06324C21.406 7.08125 21.7192 8.33418 21.7975 9.74373ZM19.9181 18.5143C20.388 17.3788 20.2705 14.638 20.2705 13.3459C20.2705 12.0538 20.388 9.31304 19.9181 8.17757C19.6049 7.39448 19.0176 6.80717 18.2345 6.49394C17.099 6.06324 14.3583 6.14155 13.0662 6.14155C11.8132 6.14155 9.07244 6.06324 7.89781 6.49394C7.15388 6.80717 6.52741 7.39448 6.25333 8.17757C5.78348 9.31304 5.90095 12.0538 5.90095 13.3459C5.90095 14.638 5.78348 17.3788 6.25333 18.5143C6.56657 19.2974 7.15388 19.8847 7.89781 20.1979C9.07244 20.6286 11.8132 20.5503 13.0662 20.5503C14.3583 20.5503 17.099 20.6286 18.2345 20.1979C19.0176 19.8847 19.6049 19.2974 19.9181 18.5143Z" fill="black"/>
</svg>
