<svg width="37" height="36" viewBox="0 0 37 36" fill="none" xmlns="http://www.w3.org/2000/svg">
<path d="M23.3611 19.8125C23.197 23.3672 22.4314 26.5938 21.3376 28.9453C20.6814 30.3125 20.0251 31.2422 19.3689 31.8438C18.7673 32.3906 18.3845 32.5 18.1658 32.5C17.947 32.5 17.5095 32.3906 16.908 31.8438C16.2517 31.2422 15.5955 30.3125 14.9939 28.9453C13.8455 26.5938 13.0798 23.3672 12.9158 19.8125H23.3611ZM12.9158 17.1875C13.0798 13.6875 13.8455 10.4062 14.9392 8.05469C15.5955 6.6875 16.2517 5.75781 16.908 5.15625C17.5095 4.60938 17.8923 4.5 18.1111 4.5C18.3298 4.5 18.7673 4.60938 19.3689 5.15625C20.0251 5.75781 20.6814 6.6875 21.283 8.05469C22.4314 10.4062 23.197 13.6875 23.3611 17.1875H12.9158ZM10.2908 17.1875H4.22046C4.71265 11.6641 8.4314 7.07031 13.4626 5.32031C11.7126 8.16406 10.4548 12.4844 10.2908 17.1875ZM4.22046 19.8125H10.2908C10.4548 24.5156 11.7126 28.8359 13.4626 31.6797C8.4314 29.9297 4.71265 25.3359 4.22046 19.8125ZM25.9861 19.8125H32.0564C31.5642 25.3359 27.8455 29.9297 22.8142 31.6797C24.5642 28.8359 25.7673 24.5156 25.9861 19.8125ZM32.0564 17.1875H25.9861C25.7673 12.4844 24.5642 8.16406 22.8142 5.32031C27.8455 7.07031 31.5642 11.6641 32.0564 17.1875Z" fill="white"/>
</svg>
