<svg width="146" height="53" viewBox="0 0 146 53" fill="none" xmlns="http://www.w3.org/2000/svg">
<g clip-path="url(#clip0_103_624)">
<path d="M0 26.5V53H73H146V26.5V0H73H0V26.5ZM141.713 26.5V48.4606H73H4.28691L4.21342 26.7454C4.18893 14.7958 4.21342 4.88287 4.28691 4.71111C4.3604 4.46574 18.25 4.41667 73.049 4.46574L141.713 4.53935V26.5Z" fill="white"/>
<path d="M6.49186 7.65555C6.41837 7.82731 6.39387 16.4153 6.41837 26.7454L6.49186 45.5162H72.8778H139.264V26.5V7.48379L72.9268 7.41018C19.9895 7.3611 6.56535 7.41018 6.49186 7.65555ZM43.7023 9.22592C44.0207 9.3486 44.0942 9.81481 44.0942 11.8268C44.0942 14.0106 44.1432 14.256 44.5351 14.1824C44.8536 14.1333 44.9761 13.8143 45.0251 12.931L45.0986 11.7532L46.3724 11.8268L47.6462 11.9005V26.3773V40.8542H46.4214H45.1966L45.0741 39.75C45.0006 38.9893 44.8291 38.6458 44.5841 38.6458C44.2902 38.6458 44.1922 39.112 44.1432 41.1486C44.0697 43.5287 44.0452 43.6759 43.5308 43.7986C43.2368 43.8722 35.9858 43.8968 27.4365 43.8722L11.8811 43.7986V40.7315V37.6643L13.3019 37.5907C14.3063 37.5417 14.7717 37.3944 14.8697 37.1245C15.0902 36.5847 14.5023 36.3148 13.057 36.3148H11.7586V26.5V16.6852H13.057C14.5023 16.6852 15.0902 16.4153 14.8697 15.8755C14.7717 15.6055 14.3063 15.4583 13.3019 15.4093L11.8811 15.3356L11.8076 12.5384C11.7831 10.9926 11.8076 9.56944 11.8566 9.39768C11.9546 9.12777 14.9677 9.0787 27.657 9.0787C36.2798 9.0787 43.4818 9.15231 43.7023 9.22592ZM85.7875 11.5815C85.861 13.9125 85.8855 14.1088 86.3509 14.1088C86.7429 14.1088 86.8653 13.9125 86.9633 13.0046L87.0858 11.9005L88.3841 11.8268L89.658 11.7532L89.609 26.3037L89.5355 40.8542H88.3106H87.0858L86.9633 39.75C86.8653 38.8421 86.7429 38.6458 86.3509 38.6458C85.8855 38.6458 85.861 38.8421 85.7875 41.2713L85.714 43.9213H69.5707H53.4274L53.3539 41.2713C53.2804 38.8421 53.256 38.6458 52.7905 38.6458C52.3986 38.6458 52.2761 38.8421 52.1781 39.75L52.0556 40.8542H50.8308H49.6059L49.5325 26.3037L49.4835 11.7532L50.7573 11.8268L52.0556 11.9005L52.1781 13.0046C52.2761 13.9125 52.3986 14.1088 52.7905 14.1088C53.256 14.1088 53.2804 13.9125 53.3539 11.5815L53.4274 9.0787H69.5707H85.714L85.7875 11.5815ZM134.119 12.2685V15.3356L132.527 15.4583C131.131 15.5565 130.935 15.6546 130.935 16.0718C130.935 16.5134 131.131 16.5625 132.601 16.6361L134.242 16.7097V26.5V36.2903L132.601 36.3639C131.131 36.4375 130.935 36.4866 130.935 36.9282C130.935 37.3454 131.131 37.4435 132.527 37.5417L134.119 37.6643V40.7315V43.7986H114.645H95.1697L95.0472 41.2222C94.9492 39.1611 94.8512 38.6458 94.5573 38.6458C94.3123 38.6458 94.1653 38.9648 94.1164 39.6273C94.0674 40.1671 93.8959 40.6824 93.7489 40.7805C93.357 41.0259 91.8137 41.0259 91.4217 40.7805C91.1768 40.6088 91.1278 37.5417 91.1768 26.2301L91.2502 11.9005H92.5976H93.9449L94.0184 13.0782C94.0919 14.0352 94.1653 14.256 94.5083 14.1824C94.8512 14.1088 94.9247 13.7407 94.9982 11.9005C95.0227 10.6736 95.0962 9.5449 95.1697 9.37314C95.2432 9.12777 99.2851 9.0787 114.694 9.12777L134.119 9.20138V12.2685ZM10.0439 26.5V36.3148H9.18649H8.3291V26.5V16.6852H9.18649H10.0439V26.5ZM137.549 26.5V36.1921L136.765 36.2657L135.957 36.3393V26.5V16.6606L136.765 16.7343L137.549 16.8079V26.5Z" fill="white"/>
<path d="M30.3514 14.7713C30.1309 14.9431 28.5386 16.8569 26.7993 19.0162C25.0601 21.1755 22.4145 24.488 20.8712 26.3773C18.544 29.2727 18.1275 29.9352 18.1765 30.5486L18.25 31.2847L22.6594 31.4074L27.0688 31.5301L27.1423 33.125C27.2648 35.5787 27.1423 35.775 25.7705 35.8731C24.7171 35.9468 24.6191 35.9958 24.6191 36.5602V37.1736L31.1842 37.2472L37.7249 37.2963V36.5602C37.7249 35.8731 37.6759 35.8241 36.7695 35.8241C35.4467 35.8241 35.2507 35.456 35.3242 33.3213L35.3977 31.5301L36.5 31.4074C37.4799 31.3093 37.6024 31.2111 37.6759 30.5977C37.7493 29.9843 37.7004 29.9352 36.794 29.9352C36.2551 29.9352 35.6916 29.788 35.5447 29.6162C35.3732 29.3954 35.2507 26.8681 35.2262 21.9361L35.1527 14.5995L32.948 14.5259C31.4292 14.4769 30.6208 14.5505 30.3514 14.7713ZM27.1423 25.5431C27.2403 30.3278 27.5342 29.9352 23.8842 29.9352C21.1406 29.9352 20.8222 29.8861 20.8222 29.4935C20.8222 29.1009 21.6551 28.0213 24.5702 24.6843C25.2806 23.8991 26.0155 22.9912 26.2114 22.6722C26.8728 21.5926 27.0688 22.1569 27.1423 25.5431Z" fill="white"/>
<path d="M66.4591 14.5259C66.2386 14.7958 65.2587 17.544 63.9114 21.5926C63.74 22.0588 63.5195 22.6722 63.4215 22.9421C63.3235 23.212 62.7356 24.856 62.1477 26.6227C61.5353 28.3648 60.8004 30.475 60.5064 31.2847C60.2124 32.0944 59.9185 33.0268 59.845 33.3704C59.6735 34.1801 58.6202 35.3088 57.6158 35.7505C57.0034 35.9958 56.8074 36.2167 56.8809 36.6338C56.9544 37.1491 57.0279 37.1736 60.2614 37.1736C63.4705 37.1736 63.5685 37.1491 63.642 36.6338C63.691 36.2412 63.5195 35.9958 62.9071 35.7014C61.0943 34.8181 61.0698 34.8181 61.7067 32.9532C62.6866 29.9597 62.3681 30.1806 65.7732 30.1806C67.8799 30.1806 68.8597 30.2787 69.0312 30.475C69.5457 31.113 71.0889 35.3824 70.893 35.5787C70.7705 35.7014 70.2316 35.8241 69.6926 35.8731C68.8353 35.9468 68.7128 36.0204 68.7128 36.5602V37.1736H75.6943H82.6759L82.7493 36.6093C82.8228 36.1921 82.6759 35.9958 82.1124 35.7995C81.4265 35.5787 81.2306 35.1861 79.8587 31.7018C79.0259 29.5917 78.193 27.506 78.0215 27.1134C77.85 26.6963 77.6295 26.1074 77.5316 25.7639C77.4336 25.4204 77.1396 24.7088 76.9191 24.169C76.6742 23.6292 75.7433 21.2981 74.8369 19.0162C73.9306 16.7097 73.0977 14.6977 72.9507 14.5259C72.7792 14.3296 71.7993 14.2315 69.6926 14.2315C67.5859 14.2315 66.6306 14.3296 66.4591 14.5259ZM66.0426 22.7458C66.1406 22.9912 66.3856 23.6292 66.6306 24.169C66.851 24.7088 67.194 25.5921 67.3899 26.1319C67.5614 26.6718 67.8064 27.2116 67.9044 27.3343C68.0024 27.4815 68.1004 27.7759 68.1004 28.0213C68.1004 28.4139 67.8554 28.463 65.9202 28.463C64.6953 28.463 63.642 28.3648 63.5685 28.2176C63.495 28.0949 63.8379 26.7208 64.3524 25.1505C65.2342 22.4514 65.7242 21.7643 66.0426 22.7458Z" fill="white"/>
<path d="M101.097 14.6241C100.999 14.7222 100.926 15.1148 100.926 15.4829C100.926 16.1208 100.999 16.1699 102.102 16.2435L103.253 16.3171V25.8866V35.456L102.151 35.5787C101.122 35.7014 101.048 35.7505 101.048 36.4375V37.1736L109.622 37.2472C118.833 37.3208 119.396 37.2718 121.601 36.0694C125.128 34.1065 126.941 30.6222 126.941 25.7639C126.917 21.7643 125.937 19.3597 123.34 16.9551C122.728 16.3907 121.576 15.6056 120.817 15.262L119.421 14.5995L110.357 14.5259C105.36 14.4769 101.195 14.5259 101.097 14.6241ZM115.82 16.4889C116.04 16.7097 116.114 19.1634 116.114 26.0338C116.114 36.3884 116.261 35.5787 114.252 35.5787H113.174V26.0583C113.174 20.8074 113.248 16.4398 113.346 16.3662C113.615 16.0718 115.501 16.1699 115.82 16.4889Z" fill="white"/>
</g>
<defs>
<clipPath id="clip0_103_624">
<rect width="146" height="53" fill="white"/>
</clipPath>
</defs>
</svg>
