<svg width="26" height="26" viewBox="0 0 26 26" fill="none" xmlns="http://www.w3.org/2000/svg">
<path d="M12.8873 3.63568C18.2515 3.63568 22.5976 7.9818 22.5976 13.3459C22.5976 18.71 18.2515 23.0562 12.8873 23.0562C7.52321 23.0562 3.17709 18.71 3.17709 13.3459C3.17709 7.9818 7.52321 3.63568 12.8873 3.63568ZM16.8419 17.927C17.1551 17.927 17.4292 17.692 17.4292 17.3396C17.4292 16.9481 17.2726 16.8306 17.0377 16.674C14.2577 14.9904 10.9688 14.9512 7.75814 15.656C7.48406 15.6952 7.24913 15.8909 7.24913 16.3216C7.24913 16.6349 7.48406 16.909 7.83644 16.909C7.95391 16.909 8.14968 16.8698 8.30629 16.8306C11.1254 16.2433 13.9837 16.3216 16.4112 17.7703C16.5678 17.8878 16.6853 17.927 16.8419 17.927ZM17.8991 15.3428C18.3298 15.3428 18.643 15.0296 18.643 14.5989C18.643 14.2465 18.5255 14.0115 18.2123 13.8158C16.2546 12.6803 13.827 12.0538 11.282 12.0538C9.63754 12.0538 8.54122 12.2496 7.4449 12.5628C7.05336 12.6803 6.81843 12.9544 6.81843 13.3851C6.81843 13.8158 7.17082 14.129 7.60152 14.129C7.75814 14.129 7.8756 14.0898 8.07137 14.0507C11.3212 13.1501 14.9625 13.7375 17.3901 15.1862C17.5467 15.2645 17.6641 15.3428 17.8991 15.3428ZM19.1129 12.3671C19.5827 12.3671 20.0134 11.9755 20.0134 11.4665C20.0134 10.9967 19.8176 10.7617 19.5044 10.566C17.3118 9.31304 14.336 8.68657 11.4778 8.68657C9.79415 8.68657 8.22799 8.88234 6.85759 9.31304C6.5052 9.39135 6.19197 9.70458 6.19197 10.2527C6.19197 10.7617 6.58351 11.1533 7.09251 11.1533C7.28829 11.1533 7.4449 11.1141 7.60152 11.075C10.8122 10.1744 15.8239 10.566 18.6038 12.2104C18.7605 12.3279 18.8779 12.3671 19.1129 12.3671Z" fill="black"/>
</svg>
