<svg width="37" height="36" viewBox="0 0 37 36" fill="none" xmlns="http://www.w3.org/2000/svg">
<path d="M18.1111 4.9375C25.6033 4.9375 31.6736 11.0078 31.6736 18.5C31.6736 25.9922 25.6033 32.0625 18.1111 32.0625C10.6189 32.0625 4.54858 25.9922 4.54858 18.5C4.54858 11.0078 10.6189 4.9375 18.1111 4.9375ZM23.6345 24.8984C24.072 24.8984 24.4548 24.5703 24.4548 24.0781C24.4548 23.5312 24.2361 23.3672 23.908 23.1484C20.0251 20.7969 15.4314 20.7422 10.947 21.7266C10.5642 21.7812 10.2361 22.0547 10.2361 22.6562C10.2361 23.0938 10.5642 23.4766 11.0564 23.4766C11.2205 23.4766 11.4939 23.4219 11.7126 23.3672C15.6501 22.5469 19.6423 22.6562 23.033 24.6797C23.2517 24.8438 23.4158 24.8984 23.6345 24.8984ZM25.1111 21.2891C25.7126 21.2891 26.1501 20.8516 26.1501 20.25C26.1501 19.7578 25.9861 19.4297 25.5486 19.1562C22.8142 17.5703 19.4236 16.6953 15.8689 16.6953C13.572 16.6953 12.0408 16.9688 10.5095 17.4062C9.96265 17.5703 9.63452 17.9531 9.63452 18.5547C9.63452 19.1562 10.1267 19.5938 10.7283 19.5938C10.947 19.5938 11.1111 19.5391 11.3845 19.4844C15.9236 18.2266 21.0095 19.0469 24.4001 21.0703C24.6189 21.1797 24.783 21.2891 25.1111 21.2891ZM26.8064 17.1328C27.4626 17.1328 28.0642 16.5859 28.0642 15.875C28.0642 15.2188 27.7908 14.8906 27.3533 14.6172C24.2908 12.8672 20.1345 11.9922 16.1423 11.9922C13.7908 11.9922 11.6033 12.2656 9.68921 12.8672C9.19702 12.9766 8.75952 13.4141 8.75952 14.1797C8.75952 14.8906 9.3064 15.4375 10.0173 15.4375C10.2908 15.4375 10.5095 15.3828 10.7283 15.3281C15.2126 14.0703 22.2126 14.6172 26.0955 16.9141C26.3142 17.0781 26.4783 17.1328 26.8064 17.1328Z" fill="white"/>
</svg>
