<svg width="37" height="36" viewBox="0 0 37 36" fill="none" xmlns="http://www.w3.org/2000/svg">
<path d="M30.9666 11.1797C31.5037 13.2793 31.5037 17.625 31.5037 17.625C31.5037 17.625 31.5037 22.0195 30.9666 24.1191C30.6736 25.2422 29.7458 26.1211 28.6228 26.4629C26.5232 27 18.1736 27 18.1736 27C18.1736 27 9.82397 27 7.77319 26.4629C6.60132 26.1211 5.72241 25.2422 5.38062 24.1191C4.84351 22.0195 4.84351 17.625 4.84351 17.625C4.84351 17.625 4.84351 13.2793 5.38062 11.1797C5.72241 10.0078 6.60132 9.12891 7.77319 8.83594C9.82397 8.25 18.1736 8.25 18.1736 8.25C18.1736 8.25 26.5232 8.25 28.574 8.83594C29.7458 9.12891 30.6736 10.0078 30.9666 11.1797ZM15.4392 21.6289L22.4216 17.625L15.4392 13.6699V21.6289Z" fill="white"/>
</svg>
