<svg width="26" height="26" viewBox="0 0 26 26" fill="none" xmlns="http://www.w3.org/2000/svg">
<path d="M22.0913 8.25284C22.4758 9.75608 22.4758 12.8674 22.4758 12.8674C22.4758 12.8674 22.4758 16.0138 22.0913 17.517C21.8815 18.3211 21.2173 18.9503 20.4132 19.195C18.91 19.5796 12.932 19.5796 12.932 19.5796C12.932 19.5796 6.95398 19.5796 5.4857 19.195C4.64668 18.9503 4.01742 18.3211 3.77271 17.517C3.38816 16.0138 3.38816 12.8674 3.38816 12.8674C3.38816 12.8674 3.38816 9.75608 3.77271 8.25284C4.01742 7.41382 4.64668 6.78456 5.4857 6.5748C6.95398 6.1553 12.932 6.1553 12.932 6.1553C12.932 6.1553 18.91 6.1553 20.3783 6.5748C21.2173 6.78456 21.8815 7.41382 22.0913 8.25284ZM10.9743 15.7341L15.9734 12.8674L10.9743 10.0358V15.7341Z" fill="black"/>
</svg>
